<?xml version="1.0" encoding="UTF-8" standalone="no"?>
<!-- Created with Inkscape (http://www.inkscape.org/) -->

<svg
   xmlns:dc="http://purl.org/dc/elements/1.1/"
   xmlns:cc="http://creativecommons.org/ns#"
   xmlns:rdf="http://www.w3.org/1999/02/22-rdf-syntax-ns#"
   xmlns:svg="http://www.w3.org/2000/svg"
   xmlns="http://www.w3.org/2000/svg"
   xmlns:xlink="http://www.w3.org/1999/xlink"
   xmlns:sodipodi="http://sodipodi.sourceforge.net/DTD/sodipodi-0.dtd"
   xmlns:inkscape="http://www.inkscape.org/namespaces/inkscape"
   width="420"
   height="420"
   id="svg2"
   version="1.1"
   inkscape:version="0.48.0 r9654"
   sodipodi:docname="irken2.svg">
  <defs
     id="defs4" />
  <sodipodi:namedview
     id="base"
     pagecolor="#ffffff"
     bordercolor="#666666"
     borderopacity="1.0"
     inkscape:pageopacity="0.0"
     inkscape:pageshadow="2"
     inkscape:zoom="2.2071429"
     inkscape:cx="210"
     inkscape:cy="210"
     inkscape:document-units="px"
     inkscape:current-layer="layer1"
     showgrid="false"
     inkscape:window-width="1071"
     inkscape:window-height="1129"
     inkscape:window-x="644"
     inkscape:window-y="57"
     inkscape:window-maximized="0" />
  <metadata
     id="metadata7">
    <rdf:RDF>
      <cc:Work
         rdf:about="">
        <dc:format>image/svg+xml</dc:format>
        <dc:type
           rdf:resource="http://purl.org/dc/dcmitype/StillImage" />
        <dc:title></dc:title>
      </cc:Work>
    </rdf:RDF>
  </metadata>
  <g
     inkscape:label="Layer 1"
     inkscape:groupmode="layer"
     id="layer1"
     transform="translate(0,-632.36218)">
    <path
       style="fill:#000000"
       d="m 208.84401,952.95897 c -4.85442,-1.81568 -9.64151,-7.50939 -10.48382,-12.46933 l -0.34437,-2.02781 -3.48254,-1.18779 c -4.57302,-1.55971 -5.99387,-2.34931 -8.06549,-4.48214 -2.88634,-2.97163 -4.49905,-8.85865 -3.64676,-13.31212 0.2329,-1.21694 0.28542,-2.21263 0.11671,-2.21263 -0.72165,0 -4.60808,4.53554 -4.87807,5.69282 -0.4009,1.71837 -1.78785,2.40686 -3.6847,1.82908 -0.8201,-0.2498 -4.74017,-0.6098 -8.71126,-0.79999 -6.72478,-0.32209 -8.90746,-0.45165 -10.36443,-0.61519 -0.32025,-0.036 -0.89669,-0.26586 -1.28099,-0.51091 -0.58804,-0.37498 -0.51511,-0.57677 0.46038,-1.27387 2.2793,-1.62881 9.01874,-5.25334 9.74567,-5.24132 0.40735,0.007 2.30446,0.84219 4.2158,1.85656 l 3.47514,1.84429 1.23199,-1.18032 c 0.6776,-0.64918 1.41958,-1.14537 1.64884,-1.10266 1.49631,0.27876 2.63789,-1.40309 6.9401,-10.22453 l 2.358,-4.83496 -1.14865,-2.32101 c -1.07051,-2.16311 -1.11129,-2.49966 -0.59934,-4.94719 0.30212,-1.4444 0.93666,-3.15024 1.41009,-3.79073 2.14457,-2.90135 6.56255,-4.76933 9.5228,-4.02635 0.61605,0.15462 2.14844,1.097 3.4053,2.09418 1.84975,1.46757 2.56568,1.77113 3.757,1.59302 1.00548,-0.15033 1.55691,-0.53732 1.74046,-1.22145 0.54713,-2.03931 0.30591,-2.55174 -1.46543,-3.11295 -5.04292,-1.59775 -14.56001,-6.28343 -18.28332,-9.00169 -3.40497,-2.48584 -7.71217,-6.61243 -9.3096,-8.91921 -2.95314,-4.26454 -6.06236,-10.24038 -6.06236,-11.65171 0,-1.82942 -1.12666,-2.31663 -3.38233,-1.46264 -6.14673,2.32715 -14.78927,4.23332 -16.6478,3.67178 -5.50264,-1.66255 -12.2491,-7.91366 -15.54615,-14.40469 -0.9577,-1.88544 -2.05496,-6.03605 -2.60322,-9.84716 -1.18556,-8.24113 3.08226,-20.50175 9.26849,-26.62656 5.04533,-4.99525 11.57101,-7.49572 16.943,-6.49213 2.26618,0.42337 4.93412,1.63917 7.89117,3.59605 0.97168,0.64303 1.84024,1.08606 1.93013,0.98452 0.18175,-0.20531 1.50691,-12.74137 2.18609,-20.68057 0.40019,-4.67788 0.83431,-8.01366 3.02588,-23.25033 0.89204,-6.2019 2.13528,-9.71496 3.87688,-10.95509 4.04922,-2.8833 16.2191,-7.6975 23.06918,-9.12579 5.09165,-1.06163 12.42315,-1.32483 19.8311,-0.71192 7.31725,0.60541 10.62366,1.16092 16.82687,2.82709 l 4.01689,1.07893 5.29945,-3.53487 c 2.91469,-1.94419 7.08119,-4.76354 9.25889,-6.26523 2.2847,-1.57549 6.86086,-4.00464 10.81904,-5.74304 l 6.85959,-3.01269 0.0112,-1.94399 c 0.008,-1.41837 0.34902,-2.34545 1.26064,-3.42885 1.15889,-1.37726 1.40172,-1.464 3.35081,-1.19684 1.21554,0.1666 2.573,0.72839 3.22017,1.33267 0.98727,0.92184 1.09628,1.3612 0.92726,3.73721 -0.24369,3.42555 -1.04431,4.28742 -3.98658,4.29158 -1.2095,0.002 -2.67612,-0.16993 -3.25915,-0.38143 -0.92135,-0.33424 -1.56447,0.1337 -4.91565,3.57665 -2.12059,2.17866 -5.10227,5.67441 -6.62594,7.76833 -1.52368,2.09392 -3.11594,4.21276 -3.53836,4.70852 -1.28953,1.51342 -4.15793,7.6884 -3.89011,8.37444 0.13848,0.3547 1.97687,1.8869 4.08532,3.40488 5.17738,3.72746 16.56365,15.3359 20.63917,21.04189 3.65089,5.11146 7.83327,12.41313 8.62623,15.05981 0.44836,1.49647 0.33104,2.26127 -0.91927,5.99321 -0.78826,2.35282 -2.38131,6.34621 -3.5401,8.87421 -1.15881,2.52799 -2.10692,4.71614 -2.10692,4.86254 0,0.1464 -0.72149,1.82816 -1.6033,3.73724 -0.88182,1.90907 -3.09194,6.69318 -4.91136,10.63135 -3.69186,7.99107 -3.48491,7.53226 -5.85614,12.98302 -2.63372,6.05414 -13.11373,26.66347 -15.19996,29.89127 -4.97186,7.69242 -12.78484,13.30424 -21.57293,15.49514 -3.81723,0.95165 -3.90741,0.9649 -11.16184,1.63992 -5.31609,0.49467 -6.28082,0.82786 -6.29917,2.17559 -0.004,0.28823 -0.12978,1.13732 -0.2797,1.88688 -0.23002,1.15011 -0.0809,1.45017 0.95523,1.92226 1.07096,0.48797 1.44684,0.41058 2.94269,-0.60588 3.86067,-2.62339 9.81763,-0.80009 12.53497,3.83669 0.91689,1.56455 1.2334,2.78002 1.2868,4.94145 0.043,1.74292 0.44112,3.68817 1.01553,4.9627 0.51959,1.1529 2.16856,5.18308 3.66437,8.95598 2.4989,6.30298 2.8031,6.83885 3.74768,6.60178 0.72948,-0.18309 1.52149,0.17525 2.72729,1.23396 l 1.69927,1.49198 2.78697,-1.25072 2.78697,-1.25071 1.74317,0.89831 c 0.95874,0.49408 3.78694,1.87821 6.28488,3.07584 2.49795,1.19764 4.54172,2.36518 4.54172,2.59453 0,0.79718 -4.39216,1.06724 -11.37523,0.69941 -3.8635,-0.2035 -8.12341,-0.35665 -9.46648,-0.34032 -2.05617,0.025 -2.66326,-0.17706 -3.84299,-1.27909 -0.77058,-0.71983 -1.40105,-1.76126 -1.40105,-2.31427 0,-1.00786 -5.47311,-8.50594 -9.21566,-12.62533 -1.09752,-1.20803 -2.51219,-2.29519 -3.14373,-2.41592 -1.01422,-0.19388 -1.20694,0.004 -1.65119,1.69552 -0.42242,1.6084 -3.70657,11.6136 -4.43633,13.5153 -0.13201,0.34404 0.92532,1.29726 2.55402,2.30256 3.31032,2.04324 5.4112,4.7283 6.43435,8.22348 0.6335,2.16409 0.6655,3.05813 0.20605,5.75649 -0.66108,3.88248 -2.41865,6.549 -5.89451,8.94291 -2.11196,1.45456 -2.85548,1.69273 -5.86353,1.87815 -2.31276,0.14258 -4.02689,-0.005 -5.21591,-0.45005 z m 7.42467,-3.04852 c 7.95918,-3.61415 9.30509,-12.31898 2.79125,-18.05269 -1.64157,-1.44497 -2.71657,-1.95399 -5.14679,-2.43704 -3.72426,-0.74026 -5.49109,-0.45607 -8.3206,1.33835 -4.06384,2.57721 -5.73944,8.39058 -3.61737,12.55019 3.13792,6.15082 9.16026,8.93213 14.29351,6.60119 z m -14.91954,-18.00359 2.39638,-2.59552 -0.23986,-5.06042 -0.23986,-5.06042 -1.68227,-0.24901 c -0.92524,-0.13696 -4.36229,-0.60601 -7.63788,-1.04234 l -5.95561,-0.79332 0.29044,-2.13197 c 0.487,-3.57465 2.65242,-11.26392 3.37582,-11.98733 0.50468,-0.50467 1.65925,-0.65563 4.45016,-0.58186 3.71676,0.0983 3.77915,0.081 4.5295,-1.25302 1.25342,-2.22836 4.17311,-1.05213 3.27194,1.31814 -0.40795,1.073 -0.3274,1.23426 0.75185,1.50513 1.24989,0.3137 1.96786,-0.26672 1.99639,-1.61391 0.008,-0.3843 0.39889,-2.27086 0.86833,-4.19236 1.03128,-4.22114 1.15917,-4.11083 -4.82831,-4.16433 -3.19347,-0.0285 -4.88567,0.20605 -7.10228,0.98454 -2.84115,0.99784 -2.93263,1.08268 -3.87065,3.58976 -0.5284,1.41228 -2.1212,6.7714 -3.53954,11.90915 -2.35346,8.5251 -2.55888,9.64999 -2.35083,12.87315 0.29931,4.63693 1.47408,6.95606 4.38899,8.6643 1.90753,1.11789 5.85358,2.31444 8.04063,2.43812 0.37966,0.0215 1.76866,-1.12894 3.08666,-2.55648 z m 51.42235,-4.24348 c -0.38429,-0.1342 -1.5919,-0.66151 -2.68355,-1.17179 -1.94575,-0.90952 -2.02614,-0.91087 -4.08207,-0.0686 l -2.09723,0.85921 1.52007,0.28804 c 1.85726,0.35194 8.31854,0.43388 7.34278,0.0931 z m -13.02347,-0.87036 c 0.49193,-0.59274 0.47749,-0.8439 -0.0806,-1.402 -0.58513,-0.58514 -0.80435,-0.5889 -1.57276,-0.027 -0.75884,0.55487 -0.79954,0.76532 -0.27114,1.402 0.77668,0.93584 1.16573,0.94131 1.92451,0.027 z m -63.41148,-4.58544 c 0.7897,-0.95153 -0.69781,-2.41966 -1.6505,-1.629 -0.56672,0.47034 -0.54936,0.67219 0.12155,1.41353 0.93596,1.03424 0.8585,1.02332 1.52895,0.21547 z m -9.44097,-2.16632 -2.72758,-1.38104 -1.87848,1.05028 -1.87848,1.05028 1.81116,0.28326 c 0.99614,0.1558 3.06887,0.30463 4.60606,0.33076 l 2.79491,0.0475 -2.72759,-1.38104 z m 67.68771,0.44671 c -0.28597,-0.53433 -0.61271,-0.87876 -0.72608,-0.76539 -0.32603,0.32602 0.33491,1.73693 0.81366,1.73693 0.23795,0 0.19857,-0.43685 -0.0876,-0.97154 z m -1.24303,-2.76226 c -0.29442,-1.12588 -0.88469,-1.55643 -1.56086,-1.13853 -0.3248,0.20073 -0.21941,0.61245 0.3051,1.19204 1.04022,1.14942 1.56449,1.12708 1.25576,-0.0535 z m -29.56609,-1.92349 c 0.11014,-1.44538 1.01481,-6.12552 1.70905,-8.8414 0.27222,-1.06493 0.12743,-1.28747 -1.12077,-1.72259 -1.00511,-0.35038 -1.43337,-0.35225 -1.43337,-0.006 0,0.59955 -3.35559,0.0583 -3.76716,-0.60763 -0.15162,-0.24533 -1.72424,-0.38331 -3.4947,-0.30661 l -3.21902,0.13943 -0.77075,2.40615 c -0.42392,1.32339 -0.96308,3.89657 -1.19814,5.71819 -0.40626,3.14843 -0.37969,3.32143 0.53785,3.5023 1.55074,0.30569 12.12072,1.45852 12.39241,1.35159 0.13617,-0.0536 0.30025,-0.78852 0.3646,-1.63319 z m -22.19289,-0.70344 c 1.00511,-0.90961 1.09997,-1.55816 0.2279,-1.55816 -0.34317,0 -0.86272,0.52404 -1.15456,1.16454 -0.61459,1.34889 -0.28406,1.4893 0.92666,0.39362 z m 49.97398,-0.1258 c 0.36117,-0.5844 -0.70101,-2.83158 -1.3342,-2.82268 -0.27912,0.004 -0.79126,0.18694 -1.13808,0.40671 -0.50426,0.31953 -0.41744,0.64472 0.43336,1.62322 1.13154,1.30139 1.60967,1.48728 2.03892,0.79275 z m -46.42005,-5.93687 c -0.23836,-1.1378 -1.03152,-0.82611 -1.96716,0.77302 -0.88338,1.50981 -0.88338,1.53928 0,2.18748 0.8187,0.60075 0.94737,0.5307 1.50135,-0.81738 0.33325,-0.81094 0.54286,-1.77534 0.46581,-2.14312 z m 44.58003,1.70688 c 0.12104,-0.19584 -0.0124,-1.02307 -0.29662,-1.83827 l -0.5167,-1.48219 -1.31208,1.54514 c -1.12739,1.32764 -1.21475,1.62016 -0.62062,2.07814 0.69719,0.53742 2.3386,0.35641 2.74602,-0.30282 z m -5.97686,-2.55149 c 1.32496,-0.92804 3.41319,-4.56345 3.41319,-5.94206 0,-1.44297 -1.60821,-3.14915 -2.96832,-3.14915 -1.49116,0 -1.65403,0.29842 -1.11731,2.04721 0.34618,1.12794 0.28361,2.34364 -0.2384,4.63212 -0.38926,1.70656 -0.56552,3.10283 -0.39168,3.10283 0.17383,0 0.75997,-0.31093 1.30252,-0.69095 z m -37.33848,-2.13727 c 0.42753,-1.94655 -0.0172,-2.215 -0.88603,-0.53485 -0.67005,1.29574 -0.59487,1.96562 0.22061,1.96562 0.19314,0 0.49258,-0.64385 0.66542,-1.43077 z m 15.99357,-3.22741 c 0.38352,-1.10017 0.35427,-1.39745 -0.13751,-1.39745 -0.64496,0 -1.19014,0.97767 -1.19014,2.13428 0,1.16423 0.82444,0.70668 1.32765,-0.73683 z m -14.10658,-3.14426 c 0.44375,-1.21695 1.19843,-3.13848 1.67707,-4.27007 0.86804,-2.0522 0.86765,-2.06021 -0.15077,-3.14427 -1.32524,-1.41066 -1.80969,-1.37081 -3.3902,0.27889 -2.23848,2.33646 -2.41997,6.29074 -0.39161,8.53205 1.09267,1.20739 1.36819,1.03678 2.25551,-1.3966 z m 21.8721,-9.02462 c 0.38636,-2.28688 -0.0682,-2.71976 -2.86677,-2.73013 -1.606,-0.006 -1.97199,0.16673 -2.20627,1.04096 -0.59003,2.20168 -0.37356,2.67807 1.22031,2.68558 0.83264,0.004 1.82833,0.21033 2.21263,0.45868 1.12332,0.72595 1.29776,0.57118 1.6401,-1.45509 z m 16.29385,-6.84099 c 4.745,-1.06839 8.63653,-2.43817 11.53264,-4.05938 3.71418,-2.07917 8.27578,-6.26546 10.39234,-9.53733 4.65796,-7.20048 14.68491,-28.19686 20.68848,-43.32159 3.44745,-8.68514 7.94899,-19.54917 10.57171,-25.51383 1.33857,-3.04421 1.79337,-6.46576 1.11254,-8.36983 -0.85877,-2.40173 -4.25501,-8.40993 -7.41667,-13.12062 -6.95114,-10.35682 -19.71118,-22.04616 -29.91402,-27.40394 -6.84839,-3.59627 -13.49533,-5.70593 -20.92646,-6.64179 -14.92188,-1.87924 -27.20052,0.21125 -41.32618,7.03597 -5.46628,2.64099 -4.97861,1.81049 -6.67149,11.36165 -2.11177,11.91457 -4.0784,25.66462 -5.39026,37.68702 l -0.85927,7.87472 1.78901,1.44162 c 4.21639,3.39763 13.58746,12.48093 13.8654,13.43961 1.16009,4.00142 -0.28313,14.5331 -2.73039,19.9246 -2.34916,5.17537 -3.72143,6.35179 -11.17776,9.58239 -1.488,0.64471 -1.49151,0.65429 -0.87629,2.39619 0.78628,2.22624 5.11531,9.59005 6.99201,11.89361 1.6697,2.04947 8.41205,7.5041 11.44894,9.26231 3.92609,2.273 12.63286,6.01911 15.52035,6.67767 4.30873,0.98271 17.87593,0.62921 23.37537,-0.60905 z m -24.45539,-8.24042 c 0,-2.08509 -0.009,-2.09618 -1.63036,-2.09618 -1.59709,0 -1.63036,0.0388 -1.63036,1.90209 0,2.29694 -1.04054,2.31352 -1.39745,0.0223 -0.1281,-0.82236 -0.39012,-1.48696 -0.58227,-1.47687 -0.19215,0.0101 -0.66379,0.0184 -1.04809,0.0184 -0.488,0 -0.69873,0.4917 -0.69873,1.63036 0,1.13866 -0.21072,1.63036 -0.69872,1.63036 -0.49095,0 -0.69873,-0.49581 -0.69873,-1.66738 0,-1.59964 -0.0552,-1.65524 -1.35839,-1.36901 -1.72251,0.37832 -5.03728,-0.19209 -4.18331,-0.71988 0.33334,-0.20601 1.61178,-0.51289 2.84098,-0.68195 l 2.23491,-0.30739 0,-1.81955 c 0,-2.2614 0.78327,-2.38539 1.19527,-0.1892 0.26291,1.40145 0.48866,1.63036 1.60786,1.63036 1.07266,0 1.25909,-0.1641 1.05837,-0.93163 -0.13399,-0.5124 -0.0237,-0.93164 0.24513,-0.93164 0.26881,0 0.62181,0.41924 0.78444,0.93164 0.22966,0.72357 0.7048,0.93163 2.12757,0.93163 1.63165,0 1.83188,-0.12428 1.83188,-1.13705 0,-1.69774 0.90011,-1.93195 1.22286,-0.31819 0.25946,1.2973 0.46714,1.42475 2.79558,1.71568 4.28461,0.53532 3.38686,1.50888 -1.10708,1.20055 -1.5011,-0.10298 -1.51391,-0.086 -1.51391,2.01248 0,1.57064 -0.18016,2.11634 -0.69873,2.11634 -0.51757,0 -0.69872,-0.54346 -0.69872,-2.09618 z m 15.60487,-6.13976 c -6.94332,-1.55749 -8.98453,-2.66985 -13.50869,-7.36156 -3.49453,-3.62393 -5.52824,-7.00273 -7.36121,-12.22985 -1.33125,-3.79634 -1.4298,-4.51993 -1.41228,-10.36965 0.0162,-5.41051 0.18,-6.77632 1.17317,-9.78216 0.63489,-1.92149 1.93511,-4.70711 2.88937,-6.19026 2.36723,-3.67922 6.97393,-8.95925 9.26424,-10.61835 5.4326,-3.93535 17.67378,-5.0954 25.30965,-2.3985 6.70748,2.369 14.18476,8.60222 16.99391,14.16647 2.05139,4.06333 4.13199,10.87811 4.14188,13.5663 0.0232,6.31405 -4.02178,15.82644 -8.98707,21.13435 -4.05154,4.33111 -9.98931,8.15282 -14.59993,9.3969 -3.52732,0.95177 -11.06157,1.32369 -13.90304,0.68631 z m 14.54293,-3.46509 c 6.14036,-2.35005 13.74998,-9.19511 16.7682,-15.08345 3.97091,-7.74697 4.48193,-12.93071 1.97459,-20.03013 -1.91624,-5.42577 -3.07326,-7.34258 -6.3645,-10.54392 -6.09902,-5.93244 -11.32016,-8.27448 -19.32974,-8.67071 -8.88691,-0.43963 -14.21109,1.43394 -18.6574,6.56552 -6.9063,7.9707 -9.1104,14.08 -8.58685,23.801 0.37557,6.97363 1.81283,10.89937 6.11942,16.71476 3.25625,4.39704 7.34663,7.06698 12.24064,7.9899 5.26137,0.9922 12.14584,0.6692 15.83564,-0.74297 z m -76.36605,-11.43294 c 1.57117,-0.73979 3.82206,-2.41499 5.48596,-4.08287 2.26633,-2.27176 3.11108,-3.56172 4.29258,-6.5549 2.26731,-5.74397 2.59106,-7.62856 2.30619,-13.42493 -0.30157,-6.13629 -0.89825,-8.20049 -4.58453,-15.86006 -2.73373,-5.68031 -6.09145,-8.68678 -9.68036,-8.66771 -6.57202,0.0349 -13.05071,4.12214 -16.60309,10.47438 -2.85794,5.11048 -4.54655,10.12961 -5.11769,15.21153 -0.45994,4.09252 1.7686,11.75008 4.51889,15.52751 1.68566,2.3152 4.31513,4.85639 6.42621,6.21049 4.94312,3.17064 8.09655,3.45458 12.95584,1.16656 z m 95.5316,-107.20073 c 1.51563,-2.25406 4.56312,-6.05949 6.77221,-8.4565 2.20909,-2.39702 3.91992,-4.45482 3.80185,-4.57289 -0.26213,-0.26213 -5.35641,2.55791 -9.03685,5.00253 -2.67142,1.77441 -9.85866,8.20537 -9.85866,8.82129 0,0.31885 4.59159,3.18378 5.22843,3.26227 0.18553,0.0229 1.5774,-1.80265 3.09302,-4.0567 z m 24.95805,-20.22785 c 1.14587,-1.63596 0.92354,-3.10415 -0.55586,-3.67071 -1.54125,-0.59024 -2.51037,-0.0971 -2.93589,1.49399 -0.75096,2.80791 1.89453,4.45707 3.49175,2.17672 z M 135.1527,945.76989 c -5.55385,-3.55933 -7.30167,-12.20499 -3.92124,-19.39654 1.54914,-3.29565 3.12062,-4.10728 7.28127,-3.76061 6.2516,0.52089 19.75698,4.93914 25.84849,8.45625 1.71753,0.99167 4.53031,2.823 6.25064,4.06964 3.61568,2.62011 3.56511,2.72747 -1.80933,3.84172 -3.9497,0.81887 -13.44464,3.2195 -22.00441,5.56343 -7.94362,2.17521 -9.85111,2.37604 -11.64542,1.22611 z m 3.06224,-3.20626 c 0.26245,-0.6903 0.47474,-3.31133 0.47176,-5.8245 -0.007,-6.03579 -1.07096,-10.34315 -2.825,-11.43857 -2.61757,-1.63469 -4.92379,7.99207 -3.306,13.80011 0.60939,2.18776 2.93837,4.71805 4.3427,4.71805 0.48284,0 1.04203,-0.53309 1.31654,-1.25509 z m 7.37989,-0.81735 c 10.76091,-2.75001 18.98117,-4.44319 21.63424,-4.45613 3.34818,-0.0163 2.74406,-0.76615 -2.94244,-3.65212 -3.10179,-1.5742 -6.0103,-2.86218 -6.46336,-2.86218 -0.45307,0 -1.02289,-0.18359 -1.26628,-0.40798 -0.95636,-0.88168 -14.59094,-4.71601 -16.76978,-4.71601 -0.4863,0 -0.59529,0.4959 -0.43513,1.97972 0.39546,3.66366 1.13535,12.6822 1.14648,13.97451 0.006,0.70455 0.15081,1.281 0.32165,1.281 0.17084,0 2.31942,-0.51336 4.77462,-1.14081 z"
       id="path3943"
       inkscape:connector-curvature="0" />
    <path
       style="opacity:0.5276074;fill:none;stroke:none"
       d="m 105.58744,726.54833 c 57.37067,-57.37065 150.38698,-57.3707 207.7577,2e-5 57.37065,57.3707 57.3707,150.38696 -3e-5,207.7577 -57.37068,57.37066 -150.38693,57.37071 -207.75768,-3e-5 -57.37067,-57.37068 -57.37072,-150.38694 1e-5,-207.75769 z"
       id="path3052"
       inkscape:connector-curvature="0" />
    <text
       xml:space="preserve"
       style="font-size:59.36548996px;font-style:normal;font-weight:normal;line-height:125%;letter-spacing:0px;word-spacing:0px;fill:#000000;fill-opacity:1;stroke:none;font-family:Times New Roman;-inkscape-font-specification:Times New Roman"
       id="text3861"
       sodipodi:linespacing="125%"
       transform="matrix(0.17364818,0.98480776,-0.98480776,0.17364818,991.86729,489.11314)"><textPath
         xlink:href="#path3052"
         id="textPath3885"><tspan
   id="tspan3863">λf. (λx. f (λy. x x y)) (λx. f (λy. x x y))</tspan></textPath></text>
    <path
       style="opacity:0.5276074;fill:#b3b3b3;fill-opacity:1;stroke:none"
       d="m 203.89533,251.85825 c -2.52106,-0.43566 -7.79086,-2.51832 -13.02458,-5.1474 -6.8273,-3.4296 -13.76199,-9.22125 -16.79904,-14.03009 -1.91537,-3.03276 -5.06311,-9.08507 -5.06311,-9.73506 0,-0.21853 1.4038,-1.04437 3.11955,-1.83521 4.33057,-1.99609 6.5294,-3.70157 7.87399,-6.1073 2.56432,-4.58807 4.41099,-12.43706 4.41099,-18.74829 l 0,-3.87899 -4.87055,-4.94743 c -2.67881,-2.72109 -6.26027,-6.10567 -7.95882,-7.52129 l -3.08826,-2.57386 0.28377,-2.71844 c 1.65813,-15.88427 6.45569,-47.371 7.65526,-50.24197 0.55368,-1.32515 1.27233,-1.86841 4.5257,-3.42118 12.69856,-6.06077 21.70677,-8.04281 34.4885,-7.58836 18.68432,0.66432 31.32885,6.53738 46.83489,21.75363 5.92494,5.8142 9.59616,10.49741 14.06868,17.94675 4.15167,6.91493 4.86207,8.96912 4.18683,12.10668 -0.50693,2.35549 -14.46983,36.2521 -19.10103,46.37001 -3.84405,8.39821 -11.04716,22.53082 -13.09927,25.70096 -2.40163,3.71009 -7.67302,8.42596 -11.54331,10.32682 -4.11474,2.02093 -9.81451,3.6389 -15.00375,4.25906 -4.58709,0.54819 -14.80107,0.56586 -17.89644,0.0309 l 0,2e-5 z m -0.36586,-8.26278 0.13932,-1.92557 2.49191,-0.22653 c 1.37055,-0.1246 2.45319,-0.43043 2.40586,-0.67962 -0.0473,-0.24919 -1.06674,-0.66705 -2.26537,-0.92858 -1.67241,-0.3649 -2.31681,-0.7601 -2.77039,-1.69903 -0.73563,-1.52276 -1.34582,-1.56095 -1.71072,-0.10707 -0.15411,0.61405 -0.66001,1.237 -1.1242,1.38432 -0.92701,0.29422 -2.69052,-0.46446 -2.69052,-1.15748 0,-0.85388 -1.25763,-0.42149 -1.50298,0.51675 -0.34684,1.32631 -1.3562,0.85789 -1.8755,-0.87039 -0.62527,-2.08092 -1.60534,-1.85529 -1.60534,0.36957 0,1.57663 -0.13257,1.81263 -1.01942,1.81483 -0.56068,0.001 -1.80842,0.2216 -2.77276,0.48937 -2.3366,0.64879 -1.57451,1.3568 1.57587,1.46405 2.32736,0.0792 2.44528,0.14292 2.66986,1.44211 0.32413,1.87504 1.54326,1.7951 1.72726,-0.11327 0.19044,-1.97511 1.25232,-1.90162 2.10782,0.14588 0.80353,1.92311 1.60134,1.66782 1.60134,-0.51242 0,-1.4302 0.11231,-1.55902 1.35922,-1.55902 1.10568,0 1.36038,0.19015 1.36541,1.01941 0.02,3.30115 1.66523,4.28539 1.89333,1.13269 z m 29.50778,-7.50909 c 5.11296,-1.85977 11.30703,-6.41441 14.82386,-10.90033 4.08804,-5.21453 6.76433,-11.90338 7.09128,-17.72327 0.18173,-3.23484 0.0285,-4.48832 -0.95738,-7.83289 -2.89197,-9.81069 -8.47346,-16.44362 -17.25179,-20.50171 -4.19448,-1.93904 -6.97764,-2.47446 -12.86244,-2.47446 -5.60058,0 -10.5471,1.05744 -14.16974,3.02913 -3.70028,2.01394 -9.53779,8.93366 -12.07686,14.31578 -2.05497,4.35596 -2.4598,6.97465 -2.25657,14.59684 0.17171,6.44014 0.25924,6.98593 1.67103,10.41998 1.97379,4.80103 4.8486,9.04031 8.35477,12.32016 3.10314,2.90284 4.9341,3.94491 9.13917,5.20147 3.95617,1.18219 14.72708,0.91971 18.49467,-0.4507 z"
       id="path3963"
       inkscape:connector-curvature="0"
       transform="translate(0,632.36218)" />
    <path
       style="opacity:0.52760739999999995;fill:#5aa48d;fill-opacity:1;stroke:none"
       d="m 145.05285,221.88223 c -9.60901,-4.95575 -14.65241,-16.63949 -11.89295,-27.55168 2.91452,-11.52534 10.43802,-19.60703 18.88394,-20.28499 5.02885,-0.40367 7.9338,2.08277 11.74085,10.04936 2.73874,5.73108 3.4251,8.33451 3.72997,14.14812 0.29717,5.66674 -0.0273,7.54027 -2.25851,13.03988 -1.85988,4.58441 -5.54785,8.52178 -9.94976,10.62261 -4.00297,1.91044 -6.51516,1.90474 -10.25354,-0.0233 l 0,-1e-5 z"
       id="path3981"
       inkscape:connector-curvature="0"
       transform="translate(0,632.36218)" />
    <path
       style="opacity:0.52760739999999995;fill:#5aa48d;fill-opacity:1;stroke:none"
       d="m 216.90538,234.17618 c -6.67034,-1.12147 -13.07464,-6.82217 -16.5221,-14.70692 -3.13244,-7.16425 -2.9962,-17.47455 0.3228,-24.42887 1.94049,-4.06594 6.3524,-9.81542 9.05337,-11.79812 3.77289,-2.76955 6.65498,-3.55175 13.165,-3.57294 9.57291,-0.0312 14.31619,1.85597 20.89015,8.31125 4.05267,3.97951 5.04317,5.50478 6.67414,10.27754 2.18328,6.38898 2.06638,11.08003 -0.42224,16.9426 -2.01339,4.74305 -4.0447,7.61586 -7.99073,11.30102 -4.4429,4.14918 -8.61615,6.61778 -12.62233,7.46649 -3.34804,0.70928 -9.00828,0.80308 -12.54806,0.20795 l 0,0 z"
       id="path3983"
       inkscape:connector-curvature="0"
       transform="translate(0,632.36218)" />
    <path
       style="opacity:0.52760739999999995;fill:#5aa48d;fill-opacity:1;stroke:none"
       d="m 196.64614,284.16321 c -3.11489,-0.36392 -5.80331,-0.79708 -5.97426,-0.9626 -0.34266,-0.33175 0.73023,-7.12533 1.50186,-9.50986 l 0.48756,-1.50667 3.23837,0.24556 c 5.82418,0.44162 8.66917,0.80286 9.03046,1.14665 0.49928,0.47509 -1.57188,11.37474 -2.14826,11.3054 -0.25977,-0.0312 -3.02085,-0.35457 -6.13573,-0.71848 z"
       id="path3985"
       inkscape:connector-curvature="0"
       transform="translate(0,632.36218)" />
    <path
       style="opacity:0.52760739999999995;fill:#5aa48d;fill-opacity:1;stroke:none"
       d="m 223.02996,273.49838 c 0.23919,-1.30825 0.33798,-3.24837 0.21954,-4.31136 -0.24759,-2.22209 0.0685,-2.5856 1.62988,-1.87421 1.6677,0.75986 2.25663,2.38388 1.51031,4.16482 -0.65824,1.57078 -2.87236,4.39939 -3.44366,4.39939 -0.19302,0 -0.15525,-1.07039 0.0839,-2.37864 z"
       id="path3987"
       inkscape:connector-curvature="0"
       transform="translate(0,632.36218)" />
    <path
       style="opacity:0.5276074;fill:#48b430;fill-opacity:1;stroke:none"
       d="m 238.11723,294.47699 c -0.39836,-0.64456 0.10963,-1.38314 0.95133,-1.38314 0.39696,0 0.62436,0.31831 0.5396,0.75534 -0.17648,0.90998 -1.08111,1.2909 -1.49093,0.6278 z"
       id="path3989"
       inkscape:connector-curvature="0"
       transform="translate(0,632.36218)" />
    <path
       style="opacity:0.5276074;fill:#48b430;fill-opacity:1;stroke:none"
       d="m 174.89856,289.24272 c -0.47122,-0.5678 -0.40581,-0.67961 0.3976,-0.67961 0.55273,0 0.96163,0.28898 0.96163,0.67961 0,0.37378 -0.17892,0.67961 -0.3976,0.67961 -0.21868,0 -0.65141,-0.30583 -0.96163,-0.67961 z"
       id="path3991"
       inkscape:connector-curvature="0"
       transform="translate(0,632.36218)" />
    <path
       style="opacity:0.52760739999999995;fill:#999999;fill-opacity:1;stroke:none"
       d="m 185.98301,268.15627 c -1.84205,-2.0374 -0.7939,-7.30787 1.721,-8.65381 0.71379,-0.382 1.08573,-0.29162 1.81951,0.44217 l 0.92233,0.92232 -1.23276,3.38002 c -0.67802,1.859 -1.48185,3.72065 -1.78628,4.137 -0.50878,0.69578 -0.6255,0.67738 -1.4438,-0.2277 z"
       id="path3993"
       inkscape:connector-curvature="0"
       transform="translate(0,632.36218)" />
    <path
       style="opacity:0.5276074;fill:#999999;fill-opacity:1;stroke:none"
       d="m 193.80395,300.81754 c -7.36829,-2.35499 -9.17992,-7.70348 -6.38599,-18.85347 0.65589,-2.61754 1.27089,-4.6808 1.36667,-4.58502 0.0958,0.0958 -0.10139,1.78487 -0.43814,3.75353 -0.33675,1.96867 -0.44595,3.64605 -0.24266,3.72753 0.20329,0.0815 3.58469,0.59211 7.51421,1.13476 l 7.1446,0.98662 0.30622,2.03676 c 0.16843,1.12022 0.32134,3.36897 0.33981,4.99723 l 0.0336,2.96046 -2.39289,2.36316 c -2.68965,2.65624 -3.22105,2.76468 -7.24541,1.47844 l 0,0 z"
       id="path3995"
       inkscape:connector-curvature="0"
       transform="translate(0,632.36218)" />
    <path
       style="opacity:0.5276074;fill:#999999;fill-opacity:1;stroke:none"
       d="m 190.32083,272.32276 c -0.0427,-1.46812 2.02976,-7.14284 2.94174,-8.05482 1.39129,-1.39128 3.81952,-2.04003 8.64138,-2.3087 4.47183,-0.24917 6.28053,0.24141 5.89565,1.5991 -0.11932,0.42091 -0.55984,2.35655 -0.97893,4.30144 -0.68157,3.16299 -0.86417,3.52158 -1.73039,3.39806 -0.79438,-0.11328 -0.94253,-0.3969 -0.8244,-1.57819 0.10704,-1.07034 -0.0889,-1.56475 -0.76309,-1.92557 -1.33278,-0.71328 -1.71506,-0.6161 -2.99134,0.76048 -1.05707,1.14014 -1.48549,1.25967 -5.04431,1.40745 -3.8692,0.16067 -3.89229,0.16879 -4.50885,1.58576 -0.34085,0.78335 -0.62771,1.15009 -0.63746,0.81499 l 0,0 z"
       id="path3997"
       inkscape:connector-curvature="0"
       transform="translate(0,632.36218)" />
    <path
       style="opacity:0.5276074;fill:#999999;fill-opacity:1;stroke:none"
       d="m 208.60679,317.1492 c -3.43108,-1.5582 -6.52237,-5.48329 -7.18656,-9.12497 -0.35883,-1.96739 0.66073,-5.41317 2.19805,-7.4287 2.30741,-3.02517 7.27445,-4.30545 11.46591,-2.95539 5.59328,1.80159 9.11061,8.30732 7.19841,13.31435 -0.85884,2.24883 -4.02318,5.42297 -6.39361,6.41339 -2.11054,0.88185 -5.05349,0.79347 -7.2822,-0.21868 l 0,0 z"
       id="path3999"
       inkscape:connector-curvature="0"
       transform="translate(0,632.36218)" />
    <path
       style="opacity:0.5276074;fill:#999999;fill-opacity:1;stroke:none"
       d="m 140.72964,308.86085 c -0.24748,-1.55531 -1.17088,-12.98523 -1.17088,-14.49318 0,-1.05104 0.99899,-0.9212 8.33774,1.08371 6.01455,1.64314 11.58064,3.73658 16.46642,6.1931 5.40076,2.71545 5.42392,2.65053 -1.30539,3.65875 -2.89795,0.43419 -18.81149,4.02573 -21.32189,4.81216 -0.58914,0.18456 -0.82352,-0.10773 -1.006,-1.25454 l 0,0 z"
       id="path4001"
       inkscape:connector-curvature="0"
       transform="translate(0,632.36218)" />
    <path
       style="opacity:0.5276074;fill:#999999;fill-opacity:1;stroke:none"
       d="m 134.79676,309.71697 c -0.85413,-0.85413 -1.73505,-2.36585 -2.04614,-3.51133 -1.20508,-4.43717 0.59082,-13.41578 2.60581,-13.02773 0.99809,0.19222 2.20916,2.66542 2.62024,5.351 0.48394,3.16153 0.34783,10.70169 -0.21206,11.74785 -0.68892,1.28727 -1.22118,1.18687 -2.96785,-0.55979 l 0,0 z"
       id="path4003"
       inkscape:connector-curvature="0"
       transform="translate(0,632.36218)" />
    <path
       style="opacity:0.5276074;fill:#999999;fill-opacity:1;stroke:none"
       d=""
       id="path4005"
       inkscape:connector-curvature="0"
       transform="translate(0,632.36218)" />
    <path
       style="opacity:0.5276074;fill:#999999;fill-opacity:1;stroke:none"
       d="m 164.36458,288.68136 c -2.87869,-0.18064 -3.28214,-0.63406 -1.29613,-1.45669 1.14146,-0.47281 1.59099,-0.39554 3.51133,0.60355 1.21125,0.63017 1.79451,1.11671 1.29613,1.0812 -0.49838,-0.0355 -2.07848,-0.13814 -3.51133,-0.22806 z"
       id="path4007"
       inkscape:connector-curvature="0"
       transform="translate(0,632.36218)" />
    <path
       style="opacity:0.5276074;fill:#999999;fill-opacity:1;stroke:none"
       d=""
       id="path4009"
       inkscape:connector-curvature="0"
       transform="translate(0,632.36218)" />
    <path
       style="opacity:0.5276074;fill:#999999;fill-opacity:1;stroke:none"
       d="m 227.55714,278.70539 c -0.99848,-0.26582 -0.9387,-0.72247 0.28603,-2.1853 l 1.01252,-1.20938 0.2385,0.62728 c 0.13117,0.34501 0.29691,1.0535 0.36831,1.57442 0.1217,0.88788 0.0892,0.96096 -0.51965,1.16806 -0.38875,0.13223 -0.94501,0.14224 -1.38571,0.0249 z"
       id="path4011"
       inkscape:connector-curvature="0"
       transform="translate(0,632.36218)" />
    <path
       style="opacity:0.5276074;fill:#999999;fill-opacity:1;stroke:none"
       d="m 229.75729,281.77157 -0.97244,-1.05497 0.52736,-0.42704 c 0.29005,-0.23486 0.68326,-0.397 0.8738,-0.36031 0.4702,0.0905 1.44759,2.0362 1.26366,2.51551 -0.23658,0.61653 -0.65812,0.44885 -1.69238,-0.67319 z"
       id="path4013"
       inkscape:connector-curvature="0"
       transform="translate(0,632.36218)" />
    <path
       style="opacity:0.5276074;fill:#999999;fill-opacity:1;stroke:none"
       d="m 232.27423,285.40117 c -0.52967,-0.67336 -0.57562,-0.89655 -0.22871,-1.11095 0.33661,-0.20804 1.04972,0.49212 1.17645,1.15506 0.14195,0.74255 -0.34685,0.7198 -0.94774,-0.0441 z"
       id="path4015"
       inkscape:connector-curvature="0"
       transform="translate(0,632.36218)" />
    <path
       style="opacity:0.5276074;fill:#999999;fill-opacity:1;stroke:none"
       d="m 249.13481,295.34595 c -2.39338,-0.11284 -4.41748,-0.33131 -4.41748,-0.47678 0,-0.24779 2.74591,-1.23711 3.37982,-1.21772 0.46262,0.0142 3.75215,1.25018 4.05312,1.52295 0.1257,0.11391 -1.85181,0.22642 -3.01546,0.17155 z"
       id="path4017"
       inkscape:connector-curvature="0"
       transform="translate(0,632.36218)" />
    <path
       style="opacity:0.5276074;fill:#999999;fill-opacity:1;stroke:none"
       d="m 183.11858,279.4111 c -0.52488,-0.437 -0.53285,-0.48498 -0.19749,-1.18825 0.47642,-0.99905 1.53262,-2.22208 1.78453,-2.06639 0.53444,0.3303 -0.25414,3.74276 -0.85909,3.71757 -0.0995,-0.004 -0.42711,-0.21247 -0.72795,-0.46293 z"
       id="path4019"
       inkscape:connector-curvature="0"
       transform="translate(0,632.36218)" />
    <path
       style="opacity:0.5276074;fill:#999999;fill-opacity:1;stroke:none"
       d="m 185.24748,274.665 c -0.16879,-0.27311 0.74355,-2.25917 1.0378,-2.25917 0.2073,0 0.0597,1.08692 -0.26917,1.9822 -0.19889,0.54142 -0.53119,0.66116 -0.76863,0.27697 z"
       id="path4021"
       inkscape:connector-curvature="0"
       transform="translate(0,632.36218)" />
    <path
       style="opacity:0.5276074;fill:#999999;fill-opacity:1;stroke:none"
       d="m 201.22219,271.20974 c 0,-0.82729 0.3832,-1.7363 0.79925,-1.89595 0.19414,-0.0745 0.39624,-0.0922 0.44911,-0.0393 0.19003,0.19002 -0.42638,1.77808 -0.83299,2.14606 -0.39264,0.35534 -0.41537,0.3438 -0.41537,-0.2108 z"
       id="path4023"
       inkscape:connector-curvature="0"
       transform="translate(0,632.36218)" />
    <path
       style="opacity:0.5276074;fill:#999999;fill-opacity:1;stroke:none"
       d="m 208.35811,259.61619 c -0.37379,-0.16122 -1.25547,-0.36284 -1.95929,-0.44803 -1.48067,-0.17923 -1.62875,-0.41695 -1.27958,-2.05411 0.17455,-0.81843 0.35419,-1.09744 0.82486,-1.28119 0.72052,-0.28128 3.35555,-0.0844 3.79932,0.28395 0.61447,0.50996 0.22376,3.85832 -0.44469,3.811 -0.14355,-0.0102 -0.56683,-0.15039 -0.94062,-0.31162 z"
       id="path4025"
       inkscape:connector-curvature="0"
       transform="translate(0,632.36218)" />
    <path
       style="opacity:0.5276074;fill:#999999;fill-opacity:1;stroke:none"
       d=""
       id="path4027"
       inkscape:connector-curvature="0"
       transform="translate(0,632.36218)" />
    <path
       style="opacity:0.5276074;fill:#999999;fill-opacity:1;stroke:none"
       d="m 180.40342,283.2952 c 0,-0.17686 0.49157,-1.28973 0.65609,-1.48532 0.37659,-0.44772 0.77735,-0.64327 1.03534,-0.5052 0.12877,0.0689 0.23413,0.1928 0.23413,0.27528 0,0.36559 -1.4049,1.76762 -1.77123,1.76762 -0.0849,0 -0.15433,-0.0236 -0.15433,-0.0524 z"
       id="path4029"
       inkscape:connector-curvature="0"
       transform="translate(0,632.36218)" />
    <path
       style="opacity:0.5276074;fill:#999999;fill-opacity:1;stroke:none"
       d="m 245.55361,117.20939 -2.1875,-1.38776 1.96096,-2.01015 c 4.16237,-4.26678 13.93823,-11.18911 14.71066,-10.41669 0.14311,0.14311 -1.1412,1.85239 -2.85401,3.7984 -1.71282,1.94601 -4.40897,5.32218 -5.99144,7.5026 -1.58248,2.18042 -3.00637,3.95022 -3.16421,3.93288 -0.15783,-0.0173 -1.27134,-0.65602 -2.47446,-1.41928 l 0,0 z"
       id="path4031"
       inkscape:connector-curvature="0"
       transform="translate(0,632.36218)" />
    <path
       style="opacity:0.52760739999999995;fill:#5aa48d;fill-opacity:1;stroke:none"
       d="m 273.43042,95.009709 c -0.72759,-0.72759 -0.68778,-2.257586 0.0863,-3.316187 0.54079,-0.739576 0.79736,-0.785282 1.8123,-0.322847 1.41429,0.644397 1.58667,2.317123 0.35376,3.43289 -0.98423,0.890721 -1.51884,0.93965 -2.25235,0.206144 z"
       id="path4033"
       inkscape:connector-curvature="0"
       transform="translate(0,632.36218)" />
  </g>
</svg>
